<svg width="233.595703" height="61.000000" viewBox="0 0 233.596 61" fill="none" xmlns="http://www.w3.org/2000/svg" xmlns:xlink="http://www.w3.org/1999/xlink">
	<desc>
			Created with Pixso.
	</desc>
	<defs/>
	<path d="M17.0522 38.7026Q16.9291 38.7026 16.7343 38.6206Q16.5497 38.5386 16.3344 38.4565L1.22015 28.1616Q0.625422 27.7412 0.307551 27.3413Q-6.58035e-05 26.9414 -6.58035e-05 26.3159L-6.58035e-05 25.0137Q-6.58035e-05 24.3882 0.307551 24.0088Q0.625422 23.6294 1.22015 23.209L16.3344 12.9141Q16.5497 12.791 16.7343 12.709Q16.9291 12.627 17.0522 12.627Q17.4316 12.627 17.6777 12.8628Q17.934 13.0884 17.934 13.5088L17.934 18Q17.934 18.6768 17.5546 19.0356Q17.1752 19.3843 16.7548 19.6816L7.59808 25.6904L16.7548 31.689Q17.1752 31.9863 17.5546 32.3247Q17.934 32.6631 17.934 33.3296L17.934 37.8618Q17.934 38.2412 17.6777 38.4771Q17.4316 38.7026 17.0522 38.7026Z" fill="#D77CE6" fill-opacity="1.000000" fill-rule="evenodd"/>
	<path d="M17.6392 22.2974Q17.7623 22.2974 17.9571 22.3794Q18.1417 22.4614 18.357 22.5435L33.4713 32.8384Q34.066 33.2588 34.3839 33.6587Q34.6915 34.0586 34.6915 34.6841L34.6915 35.9863Q34.6915 36.6118 34.3839 36.9912Q34.066 37.3706 33.4713 37.791L18.357 48.0859Q18.1417 48.209 17.9571 48.291Q17.7623 48.373 17.6392 48.373Q17.2598 48.373 17.0137 48.1372Q16.7574 47.9116 16.7574 47.4912L16.7574 43Q16.7574 42.3232 17.1368 41.9644Q17.5162 41.6157 17.9366 41.3184L27.0933 35.3096L17.9366 29.311Q17.5162 29.0137 17.1368 28.6753Q16.7574 28.3369 16.7574 27.6704L16.7574 23.1382Q16.7574 22.7588 17.0137 22.5229Q17.2598 22.2974 17.6392 22.2974Z" fill="#753DCD" fill-opacity="1.000000" fill-rule="evenodd"/>
	<path d="M60.8597 19.804C62.3477 19.804 63.6357 20.052 64.7237 20.548C65.8277 21.044 66.6757 21.748 67.2677 22.66C67.8597 23.572 68.1557 24.652 68.1557 25.9C68.1557 27.132 67.8597 28.212 67.2677 29.14C66.6757 30.052 65.8277 30.756 64.7237 31.252C63.6357 31.732 62.3477 31.972 60.8597 31.972L57.4757 31.972L57.4757 36.604L53.5877 36.604L53.5877 19.804L60.8597 19.804ZM60.6437 28.804C61.8117 28.804 62.6997 28.556 63.3077 28.06C63.9157 27.548 64.2197 26.828 64.2197 25.9C64.2197 24.956 63.9157 24.236 63.3077 23.74C62.6997 23.228 61.8117 22.972 60.6437 22.972L57.4757 22.972L57.4757 28.804L60.6437 28.804ZM83.9098 23.692L83.9098 36.604L80.3578 36.604L80.3578 35.068C79.8618 35.628 79.2698 36.06 78.5818 36.364C77.8938 36.652 77.1498 36.796 76.3498 36.796C74.6538 36.796 73.3098 36.308 72.3178 35.332C71.3258 34.356 70.8298 32.908 70.8298 30.988L70.8298 23.692L74.5738 23.692L74.5738 30.436C74.5738 32.516 75.4458 33.556 77.1898 33.556C78.0858 33.556 78.8058 33.268 79.3498 32.692C79.8938 32.1 80.1658 31.228 80.1658 30.076L80.1658 23.692L83.9098 23.692ZM90.9544 25.396C91.4024 24.772 92.0024 24.3 92.7544 23.98C93.5224 23.66 94.4024 23.5 95.3944 23.5L95.3944 26.956C94.9784 26.924 94.6984 26.908 94.5544 26.908C93.4824 26.908 92.6424 27.212 92.0344 27.82C91.4264 28.412 91.1224 29.308 91.1224 30.508L91.1224 36.604L87.3784 36.604L87.3784 23.692L90.9544 23.692L90.9544 25.396ZM105.253 23.5C106.453 23.5 107.541 23.78 108.517 24.34C109.509 24.884 110.285 25.66 110.845 26.668C111.405 27.66 111.685 28.82 111.685 30.148C111.685 31.476 111.405 32.644 110.845 33.652C110.285 34.644 109.509 35.42 108.517 35.98C107.541 36.524 106.453 36.796 105.253 36.796C103.605 36.796 102.309 36.276 101.365 35.236L101.365 41.26L97.6206 41.26L97.6206 23.692L101.197 23.692L101.197 25.18C102.125 24.06 103.477 23.5 105.253 23.5ZM104.605 33.724C105.565 33.724 106.349 33.404 106.957 32.764C107.581 32.108 107.893 31.236 107.893 30.148C107.893 29.06 107.581 28.196 106.957 27.556C106.349 26.9 105.565 26.572 104.605 26.572C103.645 26.572 102.853 26.9 102.229 27.556C101.621 28.196 101.317 29.06 101.317 30.148C101.317 31.236 101.621 32.108 102.229 32.764C102.853 33.404 103.645 33.724 104.605 33.724ZM118.823 36.796C117.367 36.796 116.231 36.412 115.415 35.644C114.599 34.86 114.191 33.756 114.191 32.332L114.191 18.796L117.935 18.796L117.935 32.116C117.935 32.66 118.071 33.084 118.343 33.388C118.631 33.676 119.031 33.82 119.543 33.82C119.735 33.82 119.927 33.796 120.119 33.748C120.327 33.7 120.487 33.644 120.599 33.58L120.767 36.484C120.143 36.692 119.495 36.796 118.823 36.796ZM128.875 33.796C129.547 33.796 130.139 33.7 130.651 33.508C131.179 33.3 131.667 32.98 132.115 32.548L134.107 34.708C132.891 36.1 131.115 36.796 128.779 36.796C127.323 36.796 126.035 36.516 124.915 35.956C123.795 35.38 122.931 34.588 122.323 33.58C121.715 32.572 121.411 31.428 121.411 30.148C121.411 28.884 121.707 27.748 122.299 26.74C122.907 25.716 123.731 24.924 124.771 24.364C125.827 23.788 127.011 23.5 128.323 23.5C129.555 23.5 130.675 23.764 131.683 24.292C132.691 24.804 133.491 25.556 134.083 26.548C134.691 27.524 134.995 28.684 134.995 30.028L125.443 31.876C125.715 32.516 126.139 32.996 126.715 33.316C127.307 33.636 128.027 33.796 128.875 33.796ZM128.323 26.332C127.379 26.332 126.611 26.636 126.019 27.244C125.427 27.852 125.115 28.692 125.083 29.764L131.371 28.54C131.195 27.868 130.835 27.332 130.291 26.932C129.747 26.532 129.091 26.332 128.323 26.332ZM143.295 36.892C141.967 36.892 140.679 36.716 139.431 36.364C138.199 35.996 137.207 35.524 136.455 34.948L137.775 32.02C138.495 32.548 139.351 32.972 140.343 33.292C141.335 33.612 142.327 33.772 143.319 33.772C144.423 33.772 145.239 33.612 145.767 33.292C146.295 32.956 146.559 32.516 146.559 31.972C146.559 31.572 146.399 31.244 146.079 30.988C145.775 30.716 145.375 30.5 144.879 30.34C144.399 30.18 143.743 30.004 142.911 29.812C141.631 29.508 140.583 29.204 139.767 28.9C138.951 28.596 138.247 28.108 137.655 27.436C137.079 26.764 136.791 25.868 136.791 24.748C136.791 23.772 137.055 22.892 137.583 22.108C138.111 21.308 138.903 20.676 139.959 20.212C141.031 19.748 142.335 19.516 143.871 19.516C144.943 19.516 145.991 19.644 147.015 19.9C148.039 20.156 148.935 20.524 149.703 21.004L148.503 23.956C146.951 23.076 145.399 22.636 143.847 22.636C142.759 22.636 141.951 22.812 141.423 23.164C140.911 23.516 140.655 23.98 140.655 24.556C140.655 25.132 140.951 25.564 141.543 25.852C142.151 26.124 143.071 26.396 144.303 26.668C145.583 26.972 146.631 27.276 147.447 27.58C148.263 27.884 148.959 28.364 149.535 29.02C150.127 29.676 150.423 30.564 150.423 31.684C150.423 32.644 150.151 33.524 149.607 34.324C149.079 35.108 148.279 35.732 147.207 36.196C146.135 36.66 144.831 36.892 143.295 36.892ZM159.056 36.796C157.68 36.796 156.44 36.516 155.336 35.956C154.248 35.38 153.392 34.588 152.768 33.58C152.16 32.572 151.856 31.428 151.856 30.148C151.856 28.868 152.16 27.724 152.768 26.716C153.392 25.708 154.248 24.924 155.336 24.364C156.44 23.788 157.68 23.5 159.056 23.5C160.416 23.5 161.6 23.788 162.608 24.364C163.632 24.924 164.376 25.732 164.84 26.788L161.936 28.348C161.264 27.164 160.296 26.572 159.032 26.572C158.056 26.572 157.248 26.892 156.608 27.532C155.968 28.172 155.648 29.044 155.648 30.148C155.648 31.252 155.968 32.124 156.608 32.764C157.248 33.404 158.056 33.724 159.032 33.724C160.312 33.724 161.28 33.132 161.936 31.948L164.84 33.532C164.376 34.556 163.632 35.356 162.608 35.932C161.6 36.508 160.416 36.796 159.056 36.796ZM174.75 23.5C176.35 23.5 177.638 23.98 178.614 24.94C179.606 25.9 180.102 27.324 180.102 29.212L180.102 36.604L176.358 36.604L176.358 29.788C176.358 28.764 176.134 28.004 175.686 27.508C175.238 26.996 174.59 26.74 173.742 26.74C172.798 26.74 172.046 27.036 171.486 27.628C170.926 28.204 170.646 29.068 170.646 30.22L170.646 36.604L166.902 36.604L166.902 18.796L170.646 18.796L170.646 25.036C171.142 24.54 171.742 24.164 172.446 23.908C173.15 23.636 173.918 23.5 174.75 23.5ZM189.78 36.796C188.42 36.796 187.196 36.516 186.108 35.956C185.036 35.38 184.196 34.588 183.588 33.58C182.98 32.572 182.676 31.428 182.676 30.148C182.676 28.868 182.98 27.724 183.588 26.716C184.196 25.708 185.036 24.924 186.108 24.364C187.196 23.788 188.42 23.5 189.78 23.5C191.14 23.5 192.356 23.788 193.428 24.364C194.5 24.924 195.34 25.708 195.948 26.716C196.556 27.724 196.86 28.868 196.86 30.148C196.86 31.428 196.556 32.572 195.948 33.58C195.34 34.588 194.5 35.38 193.428 35.956C192.356 36.516 191.14 36.796 189.78 36.796ZM189.78 33.724C190.74 33.724 191.524 33.404 192.132 32.764C192.756 32.108 193.068 31.236 193.068 30.148C193.068 29.06 192.756 28.196 192.132 27.556C191.524 26.9 190.74 26.572 189.78 26.572C188.82 26.572 188.028 26.9 187.404 27.556C186.78 28.196 186.468 29.06 186.468 30.148C186.468 31.236 186.78 32.108 187.404 32.764C188.028 33.404 188.82 33.724 189.78 33.724ZM205.507 36.796C204.147 36.796 202.923 36.516 201.835 35.956C200.763 35.38 199.923 34.588 199.315 33.58C198.707 32.572 198.403 31.428 198.403 30.148C198.403 28.868 198.707 27.724 199.315 26.716C199.923 25.708 200.763 24.924 201.835 24.364C202.923 23.788 204.147 23.5 205.507 23.5C206.867 23.5 208.083 23.788 209.155 24.364C210.227 24.924 211.067 25.708 211.675 26.716C212.283 27.724 212.587 28.868 212.587 30.148C212.587 31.428 212.283 32.572 211.675 33.58C211.067 34.588 210.227 35.38 209.155 35.956C208.083 36.516 206.867 36.796 205.507 36.796ZM205.507 33.724C206.467 33.724 207.251 33.404 207.859 32.764C208.483 32.108 208.795 31.236 208.795 30.148C208.795 29.06 208.483 28.196 207.859 27.556C207.251 26.9 206.467 26.572 205.507 26.572C204.547 26.572 203.755 26.9 203.131 27.556C202.507 28.196 202.195 29.06 202.195 30.148C202.195 31.236 202.507 32.108 203.131 32.764C203.755 33.404 204.547 33.724 205.507 33.724ZM219.721 36.796C218.265 36.796 217.129 36.412 216.313 35.644C215.497 34.86 215.089 33.756 215.089 32.332L215.089 18.796L218.833 18.796L218.833 32.116C218.833 32.66 218.969 33.084 219.241 33.388C219.529 33.676 219.929 33.82 220.441 33.82C220.633 33.82 220.825 33.796 221.017 33.748C221.225 33.7 221.385 33.644 221.497 33.58L221.665 36.484C221.041 36.692 220.393 36.796 219.721 36.796Z" fill="#FAFAFA" fill-opacity="1.000000" fill-rule="evenodd"/>
</svg>
